<svg xmlns="http://www.w3.org/2000/svg" width="64" height="64" viewBox="0 0 64 64">
  <defs><linearGradient id="bg" x1="0" y1="0" x2="0" y2="1">
    <stop offset="0" stop-color="#a8432a"></stop><stop offset="1" stop-color="#87331d"></stop></linearGradient></defs>
  <rect width="64" height="64" rx="14.08" fill="url(#bg)"></rect>
  <rect x="5.44" y="5.44" width="53.12" height="53.12" rx="9.6" fill="none" stroke="#d9a85a" stroke-width="1.792" opacity="0.85"></rect>
  <rect x="18.880000000000003" y="15.04" width="26.24" height="2.88" rx="0.768" fill="#f6efe2"></rect><path d="M 21.439999999999998 17.919999999999998 L 42.56 17.919999999999998 L 40.32 20.16 L 23.68 20.16 Z" fill="#f6efe2"></path><path d="M 23.68 20.16 L 40.32 20.16 L 41.28 42.56 L 22.72 42.56 Z" fill="#f6efe2"></path><path d="M 22.72 42.56 L 41.28 42.56 L 45.12 45.888 L 18.880000000000003 45.888 Z" fill="#f6efe2"></path><rect x="18.880000000000003" y="45.888" width="26.24" height="2.88" rx="0.768" fill="#f6efe2"></rect><line x1="27.392" y1="21.76" x2="27.392" y2="40.96" stroke="#87331d" stroke-width="0.832" opacity="0.5" stroke-linecap="round"></line><line x1="30.464" y1="21.76" x2="30.464" y2="40.96" stroke="#87331d" stroke-width="0.832" opacity="0.5" stroke-linecap="round"></line><line x1="33.536" y1="21.76" x2="33.536" y2="40.96" stroke="#87331d" stroke-width="0.832" opacity="0.5" stroke-linecap="round"></line><line x1="36.608" y1="21.76" x2="36.608" y2="40.96" stroke="#87331d" stroke-width="0.832" opacity="0.5" stroke-linecap="round"></line>
</svg>